<?xml version="1.0" standalone="no"?>
<!DOCTYPE svg PUBLIC "-//W3C//DTD SVG 20010904//EN"
 "http://www.w3.org/TR/2001/REC-SVG-20010904/DTD/svg10.dtd">
<svg version="1.0" xmlns="http://www.w3.org/2000/svg"
 width="128.000000pt" height="128.000000pt" viewBox="0 0 128.000000 128.000000"
 preserveAspectRatio="xMidYMid meet">

<g transform="translate(0.000000,128.000000) scale(0.100000,-0.100000)"
fill="#ffffff" stroke="none">
<path d="M121 1043 c-66 -102 -121 -196 -121 -208 0 -20 19 -25 287 -83 157
-34 287 -61 288 -60 1 2 64 107 140 233 76 127 143 236 150 243 9 10 46 -28
171 -178 l159 -190 42 0 43 0 -181 215 -181 215 -338 0 -337 0 -122 -187z"/>
<path d="M817 1038 c-30 -51 -91 -157 -137 -235 -45 -79 -88 -143 -95 -143
-14 0 -502 106 -537 116 -17 5 -18 -11 -18 -239 l0 -245 163 -69 162 -70 3
155 c2 140 4 154 20 149 9 -2 45 -13 80 -22 l62 -18 0 -167 0 -167 39 -18 c22
-10 48 -15 58 -11 10 4 136 57 281 119 l262 112 0 256 0 257 -141 166 c-77 91
-142 166 -144 166 -2 0 -28 -42 -58 -92z m-612 -371 l50 -13 3 -62 3 -63 -26
7 c-15 4 -45 12 -68 19 l-42 12 -3 57 c-3 64 -2 65 83 43z m885 -45 l0 -59
-60 -16 c-91 -26 -90 -26 -90 42 l0 59 58 15 c94 25 92 25 92 -41z m-570 -98
c0 -41 -4 -64 -11 -64 -7 0 -43 9 -80 20 l-69 21 0 63 0 64 80 -20 80 -20 0
-64z m360 43 l0 -64 -79 -21 c-43 -12 -81 -22 -85 -22 -4 0 -6 30 -4 67 l3 67
65 17 c103 27 100 29 100 -44z m-677 -91 l57 -17 0 -59 c0 -33 -3 -60 -7 -60
-5 0 -36 10 -70 22 l-63 23 0 58 c0 43 3 58 13 54 6 -2 38 -12 70 -21z m885
-38 l-3 -61 -50 -17 c-106 -36 -95 -40 -95 32 l0 64 68 21 c37 11 71 21 75 22
4 0 7 -27 5 -61z m-210 -70 l-3 -63 -75 -27 c-41 -15 -78 -27 -82 -27 -5 -1
-8 29 -8 67 l0 67 68 21 c105 34 103 34 100 -38z"/>
</g>
</svg>
